:version 1.10
:name ASF
:units
  mass 1
  length 1
  angle deg
:documentation
  ASF file generated by Kaydara
:root
  axis xyz
  order  tx ty tz rx ry rz
  position 0 0 0
  orientation 0 0 0
:bonedata
  begin
    id 1
    name RightUpLegDummy
    direction -0.718183 -0.695806 0.00816078
    length 4.904
    axis 0 0 0 xyz
  end
  begin
    id 2
    name RightUpLeg
    direction 3.53373e-006 -0.995788 0.0916898
    length 17.4976
    axis -3.49089 -0.000906625 0.000286804 xyz
    dof rx ry rz
  end
  begin
    id 3
    name RightLeg
    direction 0.00371092 -0.995096 -0.0988419
    length 16.5821
    axis 3.68512 0.0193738 -0.131023 xyz
    dof rx ry rz
  end
  begin
    id 4
    name RightFoot
    direction 0.00079151 -0.46099 0.887405
    length 3.77069
    axis 4.81691e-005 -0.120479 -0.188788 xyz
    dof rx ry rz
  end
  begin
    id 5
    name RightToes
    direction 0 0 0
    length 0
    axis 0 0 0 xyz
    dof rx ry rz
  end
  begin
    id 6
    name SpineDummy
    direction 8.3039e-015 1 4.57515e-016
    length 4.6813
    axis 0 0 0 xyz
  end
  begin
    id 7
    name Spine
    direction -3.15643e-008 0.999988 0.00495137
    length 10.1015
    axis -0.001389 0.000121418 2.40972e-006 xyz
    dof rx ry rz
  end
  begin
    id 8
    name Spine1
    direction 0 0 0
    length 0
    axis -0.001389 0.000121451 1.30017e-006 xyz
    dof rx ry rz
  end
  begin
    id 9
    name HEadDummy
    direction -1.99912e-008 0.999999 0.00127422
    length 3.43865
    axis -0.001389 0.000121451 1.30017e-006 xyz
  end
  begin
    id 10
    name HEad
    direction 0 0 0
    length 0
    axis 0 0 0 xyz
    dof rx ry rz
  end
  begin
    id 11
    name LeftShoulder1Dummy
    direction 0.998891 -0.0402509 -0.0244456
    length 3.5433
    axis -0.001389 0.000121451 1.30017e-006 xyz
  end
  begin
    id 12
    name LeftShoulder1
    direction 0.99951 -0.000327763 0.0313091
    length 4.05031
    axis -0.001389 0.000121451 1.30017e-006 xyz
    dof rx ry rz
  end
  begin
    id 13
    name LeftArm
    direction 0.998561 -0.00100056 -0.0536182
    length 10.3537
    axis -23.1894 0.134784 0.967509 xyz
    dof rx ry rz
  end
  begin
    id 14
    name LeftForeArm
    direction 0.998903 0.00866432 0.046012
    length 8.70632
    axis -9.91835 -0.06569 -0.177794 xyz
    dof rx ry rz
  end
  begin
    id 15
    name LeftHand
    direction 0 0 0
    length 0
    axis 0 0 0 xyz
    dof rx ry rz
  end
  begin
    id 16
    name RightShoulderDummy
    direction -0.998891 -0.0402509 -0.0244414
    length 3.5433
    axis -0.001389 0.000121451 1.30017e-006 xyz
  end
  begin
    id 17
    name RightShoulder
    direction -0.99951 -0.000327807 0.0313133
    length 4.05031
    axis 0.215806 0.000203643 -0.0068026 xyz
    dof rx ry rz
  end
  begin
    id 18
    name RightArm
    direction -0.998573 -0.000999564 -0.053403
    length 10.3947
    axis -23.2009 -0.134239 -0.964101 xyz
    dof rx ry rz
  end
  begin
    id 19
    name RightForeArm
    direction -0.998898 0.00868028 0.0461306
    length 8.68355
    axis -9.92322 0.0658061 0.178868 xyz
    dof rx ry rz
  end
  begin
    id 20
    name RightHand
    direction 0 0 0
    length 0
    axis 0 0 0 xyz
    dof rx ry rz
  end
  begin
    id 21
    name LeftUpLegDummy
    direction 0.718183 -0.695806 0.00816078
    length 4.904
    axis 0 0 0 xyz
  end
  begin
    id 22
    name LeftUpLeg
    direction -6.81752e-006 -0.995793 0.0916337
    length 17.4976
    axis -3.48766 0.00143442 -0.000524262 xyz
    dof rx ry rz
  end
  begin
    id 23
    name LeftLeg
    direction -0.00601358 -0.995091 -0.0987824
    length 16.5821
    axis 3.68178 -0.00654042 -0.000285133 xyz
    dof rx ry rz
  end
  begin
    id 24
    name LeftFoot
    direction -0.00417578 -0.460984 0.887399
    length 3.77069
    axis 1.87233e-006 4.66016e-005 -8.6538e-006 xyz
    dof rx ry rz
  end
  begin
    id 25
    name LeftToes
    direction 0 0 0
    length 0
    axis 0 0 0 xyz
    dof rx ry rz
  end
:hierarchy
  begin
    root RightUpLegDummy SpineDummy LeftUpLegDummy
    RightUpLegDummy RightUpLeg
    RightUpLeg RightLeg
    RightLeg RightFoot
    RightFoot RightToes
    SpineDummy Spine
    Spine Spine1
    Spine1 HEadDummy LeftShoulder1Dummy RightShoulderDummy
    HEadDummy HEad
    LeftShoulder1Dummy LeftShoulder1
    LeftShoulder1 LeftArm
    LeftArm LeftForeArm
    LeftForeArm LeftHand
    RightShoulderDummy RightShoulder
    RightShoulder RightArm
    RightArm RightForeArm
    RightForeArm RightHand
    LeftUpLegDummy LeftUpLeg
    LeftUpLeg LeftLeg
    LeftLeg LeftFoot
    LeftFoot LeftToes
  end

:SAMPLES-PER-SECOND 30
:FULLY-SPECIFIED
:DEGREES
111
root  -21.1477 39.0648 3.24022 32.1073 -86.9818 -38.2715
RightUpLeg  -18.6766 -19.5067 2.28864
RightLeg  20.4637 -1.39657 -0.538621
RightFoot  3.43267 0.605473 -4.53103
RightToes  0.000481921 0.542163 -0.142578
Spine  13.8073 -5.26521 -6.96232
Spine1  0.894181 -10.2034 21.5777
HEad  -9.26569 18.8139 -5.26381
LeftShoulder1  7.41734 -11.1702 -43.9969
LeftArm  -15.2506 -2.05994 -23.8897
LeftForeArm  45.664 -55.4625 -12.4932
LeftHand  -0.25398 0.0180481 5.50724
RightShoulder  3.20327 5.28292 30.4456
RightArm  -26.1127 -41.0369 38.7825
RightForeArm  -2.05165 61.1686 21.4315
RightHand  -1.98111 7.00249 -18.8025
LeftUpLeg  12.913 4.52371 6.50088
LeftLeg  31.635 -0.0723596 0.336157
LeftFoot  -11.1551 0.0744777 -12.3334
LeftToes  1.06247e-005 4.65869e-005 -8.65512e-006
112
root  -22.6682 39.0749 3.10542 53.2736 -85.9518 -59.846
RightUpLeg  -17.3833 -19.1299 3.61899
RightLeg  23.8277 -1.6291 -1.03526
RightFoot  -0.293151 0.519798 -5.30043
RightToes  0.000481921 0.542163 -0.142578
Spine  13.0997 -4.6668 -1.09424
Spine1  3.23343 -8.40571 18.1448
HEad  -12.1454 17.9576 -6.26321
LeftShoulder1  8.19501 -11.8232 -46.6476
LeftArm  -10.8209 2.12612 -26.6679
LeftForeArm  45.6662 -45.5528 -8.28391
LeftHand  -0.25398 0.0180481 5.50724
RightShoulder  4.23224 6.99645 34.3264
RightArm  -25.0583 -33.9009 35.8027
RightForeArm  -10.2407 54.1262 16.5211
RightHand  -2.45286 8.92954 -20.1359
LeftUpLeg  6.95113 4.04201 8.4987
LeftLeg  44.3002 1.49183 1.98061
LeftFoot  0.674051 1.16758 -11.3602
LeftToes  1.06247e-005 4.65869e-005 -8.65512e-006
113
root  -24.0956 39.0887 2.98866 58.948 -85.2763 -65.5991
RightUpLeg  -15.6337 -18.7102 3.81048
RightLeg  25.9277 -1.99147 -1.15957
RightFoot  -4.20226 0.228793 -4.13486
RightToes  0.000481921 0.542163 -0.142578
Spine  12.2839 -3.65655 5.00475
Spine1  5.13137 -5.57132 13.4086
HEad  -14.4881 15.3214 -6.74671
LeftShoulder1  8.77818 -12.3231 -48.4162
LeftArm  -5.65257 4.87733 -29.2041
LeftForeArm  40.8527 -30.2075 -4.75077
LeftHand  -0.25398 0.0180481 5.50724
RightShoulder  5.34885 8.62262 38.0765
RightArm  -21.5547 -27.0866 31.3294
RightForeArm  -10.5103 47.5289 12.9315
RightHand  -2.8037 10.4042 -20.8568
LeftUpLeg  -0.539557 3.7857 9.25882
LeftLeg  56.2995 2.2886 4.18667
LeftFoot  8.78896 1.48093 -8.56412
LeftToes  1.06247e-005 4.65869e-005 -8.65512e-006
114
root  -25.6117 39.2889 2.86039 56.6221 -85.6942 -62.9876
RightUpLeg  -13.0774 -18.178 2.6207
RightLeg  26.044 -2.37336 -0.83212
RightFoot  -6.31972 0.108845 -3.4919
RightToes  0.000481921 0.542163 -0.142578
Spine  11.3882 -2.14758 9.76348
Spine1  5.88038 -2.17804 7.87776
HEad  -15.6246 11.9284 -7.92692
LeftShoulder1  9.31103 -12.8658 -49.6572
LeftArm  -4.81414 8.32449 -30.0087
LeftForeArm  36.4659 -13.7585 -4.35038
LeftHand  -0.25398 0.0180481 5.50724
RightShoulder  6.08149 9.49097 40.6425
RightArm  -17.2614 -21.8515 27.151
RightForeArm  -4.71774 44.5719 11.3353
RightHand  -2.7939 10.5983 -20.5386
LeftUpLeg  -7.67314 4.02092 8.4943
LeftLeg  64.6781 2.28854 5.89483
LeftFoot  8.95924 1.10875 -6.45083
LeftToes  1.06247e-005 4.65869e-005 -8.65512e-006
115
root  -27.1995 39.648 2.72304 49.9718 -86.6942 -55.9675
RightUpLeg  -9.93816 -17.0212 0.751906
RightLeg  24.8736 -3.20042 -0.400207
RightFoot  -7.67918 0.0547202 -3.31934
RightToes  0.000481921 0.542163 -0.142578
Spine  10.9209 -0.744013 12.7836
Spine1  5.77728 0.730622 2.49812
HEad  -16.3935 9.48129 -10.2525
LeftShoulder1  9.7319 -13.3316 -50.4634
LeftArm  -10.1078 14.8759 -28.2292
LeftForeArm  37.8218 -3.03867 -4.97452
LeftHand  -0.25398 0.0180481 5.50724
RightShoulder  6.26534 9.62503 41.4953
RightArm  -12.8198 -17.1277 24.6379
RightForeArm  0.906811 44.3195 10.883
RightHand  -2.35294 9.39551 -18.7462
LeftUpLeg  -13.7516 4.48367 7.00836
LeftLeg  68.2198 2.01359 6.32494
LeftFoot  5.4228 0.748842 -5.32317
LeftToes  1.06247e-005 4.65869e-005 -8.65512e-006
